<svg xmlns="http://www.w3.org/2000/svg" viewBox="0 0 16 16">
  <path
    style="line-height:normal;text-indent:0;text-align:start;text-decoration-line:none;text-decoration-style:solid;text-decoration-color:#FFF;text-transform:none;block-progression:tb;isolation:auto;mix-blend-mode:normal"
    d="M 2.5917969 1 C 1.7147969 1 1 1.7147969 1 2.5917969 L 1 12.408203 C 1 13.285203 1.7147969 14 2.5917969 14 L 7.7617188 14 C 8.5704696 15.204592 9.94479 16 11.5 16 C 13.979359 16 16 13.979359 16 11.5 C 16 9.94479 15.204592 8.5704696 14 7.7617188 L 14 3.4746094 L 11.525391 1 L 2.5917969 1 z M 2.5917969 2 L 3 2 L 3 4.125 C 3 5.113249 3.7046225 6 4.6679688 6 L 9.3320312 6 C 10.295378 6 11 5.113249 11 4.125 L 11 2 L 11.111328 2 L 13 3.8886719 L 13 7.2753906 C 12.528582 7.1071101 12.028145 7 11.5 7 C 9.94479 7 8.5704696 7.795408 7.7617188 9 L 5.5 9 C 4.673 9 4 9.673 4 10.5 L 4 13 L 2.5917969 13 C 2.2657969 13 2 12.734203 2 12.408203 L 2 2.5917969 C 2 2.2657969 2.2657969 2 2.5917969 2 z M 4 2 L 7 2 L 7 4 L 9 4 L 9 2 L 10 2 L 10 4.125 C 10 4.654751 9.658685 5 9.3320312 5 L 4.6679688 5 C 4.341315 5 4 4.654751 4 4.125 L 4 2 z M 11.5 8 C 13.438919 8 15 9.5610811 15 11.5 C 15 13.438919 13.438919 15 11.5 15 C 9.5610811 15 8 13.438919 8 11.5 C 8 9.5610811 9.5610811 8 11.5 8 z M 13.001953 9.8613281 L 11.160156 11.703125 L 10.013672 10.556641 L 9.3066406 11.263672 L 11.160156 13.117188 L 13.708984 10.568359 L 13.001953 9.8613281 z M 5.5 10 L 7.2753906 10 C 7.1071101 10.471418 7 10.971855 7 11.5 C 7 12.028145 7.1071101 12.528582 7.2753906 13 L 5 13 L 5 10.5 C 5 10.224 5.225 10 5.5 10 z"
    color="#fff" font-weight="400" font-family="sans-serif" white-space="normal" overflow="visible" />
</svg>
